<?xml version="1.0" encoding="UTF-8" standalone="no"?>
<svg width="1245px" height="635px" viewBox="0 0 1245 635" version="1.1" xmlns="http://www.w3.org/2000/svg" xmlns:xlink="http://www.w3.org/1999/xlink" xmlns:sketch="http://www.bohemiancoding.com/sketch/ns">
    <!-- Generator: Sketch 3.2.2 (9983) - http://www.bohemiancoding.com/sketch -->
    <title>Slice 1</title>
    <desc>Created with Sketch.</desc>
    <defs></defs>
    <g id="Page-1" stroke="none" stroke-width="1" fill="none" fill-rule="evenodd" sketch:type="MSPage">
        <g id="JamesSauterLogo" sketch:type="MSLayerGroup" fill="#FFFFFF">
            <g id="r" transform="translate(853.000000, 284.000000)" sketch:type="MSShapeGroup">
                <path d="M19.654,41.329 C3.55,31.729 -3.424,-10.767 3.691,3.662 C11.921,20.353 79.372,50.713 147.321,43.504 C211.127,36.734 213.505,35.132 177.33,45.667 L129.333,54.148 L77.032,58.772 C77.032,58.772 33.812,49.768 19.654,41.329 L19.654,41.329 Z" id="Shape"></path>
                <path d="M73.645,55.865 C73.645,55.865 133.877,82.127 141.005,126.812 C150.471,186.157 63.568,243.791 88.068,288.291 C164.584,427.268 85.657,294.483 108.742,249.718 C132.305,204.024 157.672,188.5 157.672,137.332 C157.672,99.332 135.005,69.332 100.645,54.149" id="Shape"></path>
                <path d="M327.005,195.271 C346.287,181.242 380.873,201.867 387.652,220.202 C394.889,239.775 389.443,265.881 382,264 C357.771,257.878 362.274,310.786 293.152,310.995 C273.15,311.056 253.819,304.479 253.819,304.479 C253.819,304.479 193.815,272.82 175.8,194.452 C159.899,125.279 199.969,134.831 224.137,143.831 C238.137,149.045 246.04,150.6 253.135,149.165 C260.969,147.581 266.469,144.331 266.469,144.331 L277.219,138.831 C277.219,138.831 262.552,154.831 244.885,156.498 C228.291,158.063 230.329,154.114 212.498,154.12 C196.732,154.124 186.945,170.082 191.498,186.12 C196.522,203.82 234.817,298.86 299.97,294 C367,289 390.613,204.413 327.005,195.271" id="Shape"></path>
                <path d="M77.032,58.772 C122.226,59.374 105.427,59.28 162.997,51.668 C203.33,46.335 275.933,-9.393 288.943,52.966 C294.592,80.046 274.946,124.454 241.946,125.12 C208.946,125.786 203.68,101.081 203.68,101.081 C203.68,101.081 200.23,73.415 222.152,65.204 C253.18,53.58 244.41,97.218 230.18,79.831 C219.249,66.474 232.379,108.054 244.68,88.331 C267.43,51.852 207.627,34.463 190.946,88.454 C184.342,109.831 209.68,128.581 241.276,132.321 C272.713,136.044 305.793,102.522 307.287,53.657 C308.154,25.299 285.946,0.705 252.274,0.701 C208.653,0.696 189.29,32.066 159.333,37 C100.637,46.668 65.226,36.204 65.226,36.204" id="Shape"></path>
            </g>
            <g id="e" transform="translate(806.000000, 371.000000)" sketch:type="MSShapeGroup">
                <path d="M70.618,0.777 C70.618,0.777 -0.382,6.777 0.618,81.777 C1.618,156.777 63.951,142.777 63.951,142.777 C63.951,142.777 118.285,136.777 140.618,81.444 C162.951,26.111 129.941,119.777 70.613,123.777 C11.285,127.777 19.285,39.43 45.618,21.937 C71.951,4.444 80.777,0.356 74.122,0.777" id="Shape"></path>
                <path d="M22.951,95.111 C22.951,95.111 18.617,70.444 51.617,61.444 C84.617,52.444 78.454,31.121 78.454,31.121 C78.454,31.121 83.95,40.757 77.617,56.767 C71.284,72.777 58.02,81.112 51.152,81.778 C44.284,82.444 23.403,96.896 34.663,107.744" id="Shape"></path>
            </g>
            <g id="t" transform="translate(633.000000, 294.000000)" sketch:type="MSShapeGroup">
                <path d="M11.843,178.096 C11.843,178.096 10.743,173.222 8.697,169.214 C-1.504,149.242 16.291,132.214 67.622,125.881 C141.07,116.819 176.952,86.557 176.957,73.211 C176.966,48.214 155.342,36.669 155.342,36.669 C155.342,36.669 190.271,83.776 88.291,104.213 C8.447,120.214 5.947,134.214 2.341,145.671 C-2.251,160.258 3.625,169.129 4.468,170.504 C5.582,172.324 11.843,178.096 11.843,178.096 L11.843,178.096 Z" id="Shape"></path>
                <path d="M74.887,0.381 C85.554,-1.845 114.374,91.03 116.832,118.728 C124.435,204.394 76.435,268.728 76.435,268.728 C76.435,268.728 32.101,324.394 17.768,324.394 C3.435,324.394 98.164,274.203 95.799,167.798 C93.434,61.393 66.97,46.047 66.97,46.047 C66.97,46.047 80.727,38.047 79.435,22.395" id="Shape"></path>
            </g>
            <g id="sau" transform="translate(0.000000, 261.000000)" sketch:type="MSShapeGroup">
                <path d="M393.023,0.5 C393.023,0.5 401.727,54.397 334.86,69.669 C272.142,83.994 229.313,54.293 187.646,57.293 C145.979,60.293 121.98,89.959 121.646,113.959 C121.312,137.959 143.978,174.959 194.312,174.959 C244.646,174.959 263.313,143.625 263.646,135.291 C263.979,126.959 258.313,114.625 251.646,112.291 C244.979,109.959 255.646,101.625 265.979,119.625 C276.312,137.625 263.312,158.625 263.312,158.625 C263.312,158.625 241.979,192.957 187.979,195.291 C133.979,197.625 101.646,146.627 101.646,110.625 C101.646,74.625 142.641,35.757 197.646,34.625 C260,33.342 294.5,59 329.422,49.397 C357.603,41.647 386.523,37.245 393.023,0.5 L393.023,0.5 Z" id="Shape"></path>
                <path d="M166.832,258.168 C166.832,258.168 167.083,258.557 167.5,259.175 C170.271,263.284 180.364,277.564 172.832,255.835 C164.165,230.835 200.862,195.324 238.014,195.246 C263.556,195.192 283.512,204.629 294.898,223.639 C300.074,232.28 303.479,242.899 304.833,255.502 C309.166,295.835 283.337,320.004 201.003,319.004 C118.669,318.004 101.648,239.989 101.648,230.322 C101.648,220.655 98.189,216.183 93.835,210.318 C91.882,207.688 80.397,200.716 63.731,200.666 C47.065,200.616 -0.456,223.532 0.877,258.865 C0.88,258.934 0.507,258.958 6.877,250.198 C13.335,241.318 27.835,231.068 59.585,228.068 C86.725,225.504 107.65,345.498 223.004,343.67 C304.409,342.38 318.501,285.169 316.834,255.502 C315.167,225.835 299.834,174.834 234.167,174.835 C168.5,174.836 164.167,231.502 164.167,231.502 C164.167,231.502 162.254,251.826 166.832,258.168 L166.832,258.168 Z" id="Shape"></path>
                <path d="M458.142,232.175 C458.142,232.175 447.475,265.175 462.475,232.175 C477.475,199.175 476.142,171.582 476.142,171.582 C476.142,171.582 473.141,114.175 416.808,114.175 C360.475,114.175 341.476,173.842 342.476,197.842 C343.476,221.842 349.475,260.176 371.809,288.842 C394.143,317.508 345.809,252.175 360.809,196.175 C375.809,140.175 417.143,137.175 417.143,137.175 C417.143,137.175 472.81,129.508 462.143,209.175" id="Shape"></path>
                <path d="M364.143,171.582 L371.772,169.616 C371.772,169.616 384.889,173.174 397.516,176.508 C410.143,179.842 430.695,172.725 435.585,169.616 C440.475,166.507 444.027,171.508 435.585,183.175 C427.143,194.842 407.809,196.508 407.809,196.508 C407.809,196.508 385.476,192.176 379.476,187.842 C373.476,183.508 362.164,191.489 362.164,191.489" id="Shape"></path>
                <path d="M615.189,134.688 C615.189,134.688 611.856,101.692 616.856,129.359 C621.856,157.026 616.856,166.128 616.856,166.128 C616.856,166.128 600.856,218.693 548.189,219.693 C495.522,220.693 500.189,155.099 500.189,155.099 C500.189,155.099 501.856,97.687 546.189,51.023 C590.522,4.359 519.522,75.765 517.522,152.229 C515.522,228.693 584.856,191.026 584.856,191.026 C584.856,191.026 616.522,175.025 615.189,141.359" id="Shape"></path>
                <path d="M614.931,137.028 C614.931,137.028 605.798,66.675 618.365,142.018" id="Shape"></path>
            </g>
            <g id="S" transform="translate(812.000000, 15.000000)" sketch:type="MSShapeGroup">
                <path d="M283.841,9.379 C280.174,30.046 199.651,31.271 190.486,28.585 C171.155,22.919 77.819,1.253 45.819,18.587 C13.819,35.921 13.849,44.585 10.429,47.252 C7.009,49.919 1.342,63.919 1.009,64.252 C0.676,64.585 -1.326,81.918 8.675,66.919 C8.675,66.919 11.43,64.029 16.233,59.902 C18.007,58.377 20.062,56.682 22.361,54.903 C35.692,44.581 76.708,31.382 99.486,31.586 C136.82,31.919 164.486,36.253 183.153,44.919 C201.82,53.585 261.981,47.761 282.648,27.427 C303.315,7.093 287.508,-11.288 283.841,9.379 L283.841,9.379 Z" id="Shape"></path>
                <path d="M108.821,25.253 C108.821,25.253 75.821,43.92 65.154,65.92 C54.487,87.92 51.891,113.253 80.856,139.253 C108.319,163.905 157.458,166.693 185.154,147.148 C219.487,122.919 235.821,129.586 235.821,129.586 C235.821,129.586 259.154,129.919 269.154,139.586 C279.154,149.253 231.82,98.919 181.487,131.586 C131.154,164.253 79.487,115.92 79.487,95.253 C79.487,74.586 101.155,28.253 140.821,30.253" id="Shape"></path>
                <path d="M113.821,31.253 C113.821,31.253 104.821,62.586 108.154,76.92 C111.487,91.254 127.821,106.587 127.821,106.587 C127.821,106.587 134.153,114.921 149.487,114.254 C164.821,113.587 158.82,102.254 149.487,101.921 C140.154,101.588 118.487,82.254 118.154,68.254 C117.821,54.254 116.154,38.587 122.154,37.254" id="Shape"></path>
                <path d="M110.487,25.253 C110.487,25.253 114.154,62.789 144.154,73.021 C174.154,83.253 197.487,67.586 197.487,67.586 C197.487,67.586 210.944,54.919 210.146,44.649 L193.163,40.269 C193.163,40.269 200.336,53.522 170.496,62.586 C140.656,71.65 125.808,35.253 131.496,25.253" id="Shape"></path>
                <path d="M54.032,200.529 C47.852,193.403 69.198,212.273 92.781,206.295 C98.985,204.723 106.531,200.529 114.781,217.731 C134.516,258.882 173.757,252.32 189.195,251.439 C254.834,247.694 264.195,210.497 264.195,210.497 C264.195,210.497 276.528,185.394 264.195,164.355 C251.862,143.316 228.528,149.512 228.528,149.512 C228.528,149.512 207.528,156.316 205.528,170.983 C203.528,185.65 203.528,162.65 203.528,162.65 C203.528,162.65 223.529,129.317 272.862,154.317 C322.195,179.317 274.457,263.985 202.515,267.18 C178.848,268.231 134.448,274.018 56.198,202.566" id="Shape"></path>
                <path d="M206.371,158.695 C206.371,158.695 184.421,174.405 196.088,195.405 C207.755,216.405 227.422,206.405 227.422,206.405 C227.422,206.405 245.088,199.955 245.088,186.513 C245.088,173.071 234.422,174.071 234.422,174.071 C234.422,174.071 225.422,174.407 225.755,183.739 C226.088,193.071 226.44,178.055 234.422,177.738 C242.404,177.421 239.756,198.466 228.422,198.269 C217.088,198.072 198.825,183.74 208.463,163.443" id="Shape"></path>
            </g>
            <g id="ME" transform="translate(554.000000, 127.000000)" sketch:type="MSShapeGroup">
                <path d="M11.64,148.813 C11.64,148.813 38.64,71.146 13.64,44.146 C-11.36,17.146 29.639,41.479 31.306,46.813 C32.973,52.147 31.639,78.147 47.306,99.48 C62.973,120.813 6.479,161.171 9.973,152.147 C13.467,143.123 38.306,110.147 38.306,110.147" id="Shape"></path>
                <path d="M80.973,68.48 C80.973,68.48 83.64,64.147 79.306,55.708 C74.972,47.269 58.973,39.813 53.64,37.146 C48.307,34.479 16.77,34.044 3,27.75 C-6.681,23.324 12,42.917 31,45.25 C45.154,46.988 81.09,86.846 76.224,80.726 C73.559,77.374 78.125,83.797 78.125,83.797 C85.728,75.502 96.513,66.157 96.513,66.157 L94.026,56.93 L66.631,64.933" id="Shape"></path>
                <path d="M94.64,67.48 C94.64,67.48 96.818,65.921 100.116,63.663 C109.393,57.31 127.531,45.425 130.973,47.147 C135.64,49.48 143.306,39.814 141.973,43.147 C140.64,46.48 154.973,36.807 153.973,31.644 C152.973,26.481 149.306,34.814 136.973,37.814 C124.64,40.814 85.974,35.147 74.64,66.147 C63.306,97.147 96.972,48.814 73.306,59.814 C49.64,70.814 93.259,80.178 94.973,62.147 C96.687,44.116 85.306,76.689 85.306,76.689" id="Shape"></path>
                <path d="M150.634,154.125 C132.946,149 98.336,118.25 110.155,102.25 C121.974,86.25 126.64,63.146 126.64,63.146 C126.64,63.146 132.385,36.146 128.679,38.813 C124.973,41.48 147.909,33.817 150.306,34.692 C152.703,35.567 141.306,45.936 137.973,55.708 C134.64,65.48 133.575,81.657 132.625,88.75 C131.555,96.75 141.611,142.583 148.75,150.75" id="Shape"></path>
                <path d="M280.938,98.876 C280.938,98.876 266.604,115.8 247.604,122.171 C228.604,128.542 203.604,117.209 190.271,104.209 C176.938,91.209 149.272,27.209 206.938,5.876 C264.604,-15.457 315.604,37.209 315.604,37.209 C315.604,37.209 323.937,47.542 315.604,42.209 C307.271,36.876 264.27,-1.791 203.604,28.209 C142.938,58.209 204.82,57.152 190.271,67.209 C175.722,77.266 206.938,102.876 206.938,102.876 C206.938,102.876 233.604,123.876 273.604,101.876" id="Shape"></path>
                <path d="M210.271,22.071 C210.271,22.071 160.537,79.545 230.904,111.544 C301.271,143.543 147.938,89.405 182.938,66.807 C217.938,44.209 155.937,46.209 188.604,30.209" id="Shape"></path>
                <path d="M186.268,59.88 C186.268,59.88 201.381,77.346 222.381,72.482 C243.381,67.618 246.048,66.618 257.381,74.951 C268.714,83.284 264.381,80.618 264.381,80.618 C264.381,80.618 273.008,92.43 265.194,70.524 C257.38,48.618 230.28,53.285 230.28,53.285 C230.28,53.285 217.267,57.211 194.934,39.69 C187.924,34.19 192.934,24.439 192.934,24.439 L174.047,51.619 L180.713,63.504" id="Shape"></path>
                <path d="M200.273,95.542 L218.068,104.628 L221.148,116.875 L200.273,100.542" id="Shape"></path>
            </g>
            <g id="A" transform="translate(401.000000, 122.000000)" sketch:type="MSShapeGroup">
                <path d="M26.975,113.306 C26.975,113.306 -25.692,76.881 17.308,23.548 C60.308,-29.785 149.484,14.881 131.151,101.548 C112.818,188.215 75.642,192.215 75.642,192.215 C75.642,192.215 101.975,164.548 104.642,155.882 C107.309,147.216 126.463,120.64 119.309,68.882 C112.324,18.345 65.785,16.882 51.309,25.549 C39.863,32.402 -0.024,59.549 21.309,99.549" id="Shape"></path>
                <path d="M40.976,82.215 C40.976,82.215 57.976,74.548 81.309,85.215 C104.642,95.882 126.309,69.215 126.309,69.215 L121.976,59.548 C121.976,59.548 100.976,89.881 71.976,62.548 C42.976,35.215 18.976,107.215 38.976,82.881" id="Shape"></path>
            </g>
            <g id="J" transform="translate(105.000000, 0.000000)" sketch:type="MSShapeGroup">
                <path d="M240.945,25.015 C196.945,25.015 139.612,46.348 101.612,46.348 C63.612,46.348 6.945,34.348 6.945,14.348 C6.945,6.848 10.686,0.809 10.686,0.809 C10.686,0.809 0.945,4.348 0.945,14.348 C0.945,30.348 18.283,68.76 102.945,69.681 C164.279,70.348 174.945,48.348 227.278,49.348 C278.296,50.323 314.428,81.603 317.612,85.015 C324.37,92.256 321.989,96.23 321.989,96.23 C321.989,96.23 327.612,96.23 327.612,85.015 C327.612,79.015 292.945,25.015 240.945,25.015 L240.945,25.015 Z" id="Shape"></path>
                <path d="M209.947,39.68 C268.114,97.847 320.305,218.396 182.281,250.013 C90.614,271.012 30.281,215.68 30.281,215.68 C30.281,215.68 46.492,224.105 72.611,211.005 C85.944,204.318 106.385,229.06 112.945,234.682 C124.611,244.682 155.538,240.243 164.279,239.682 C208.521,236.843 224.614,223.678 239.614,205.012 C254.614,186.346 267.614,164.679 237.947,102.012 C208.28,39.345 151.947,52.012 161.947,50.012 C171.947,48.012 185.339,54.344 185.339,54.344" id="Shape"></path>
                <path d="M200.947,52.345 C200.947,52.345 213.614,46.012 209.614,54.012 C205.614,62.012 226.281,128.345 170.281,147.225 C113.5,166.369 240.615,190.012 218.281,79.345 C195.947,-31.322 225.614,75.012 207.614,46.012" id="Shape"></path>
                <path d="M99.947,59.678 C99.947,59.678 112.947,94.011 133.614,103.011 C154.281,112.011 185.614,103.011 189.614,98.011 C193.614,93.011 208.089,82.019 209.055,58.01 C210.021,34.001 188.241,50.011 188.241,50.011 C188.241,50.011 196.281,67.482 184.281,78.011 C172.281,88.54 164.279,91.344 146.947,88.011 C143.931,87.431 126.615,82.011 121.281,63.011" id="Shape"></path>
            </g>
        </g>
    </g>
</svg>